<svg xmlns="http://www.w3.org/2000/svg" viewBox="0 0 960 540" font-family="Segoe UI, Arial, sans-serif" stroke-linejoin="round">
  <rect x="0" y="0" width="960" height="540" fill="#ffffff" stroke="#888880" stroke-width="2"/>

  <!-- Virsuje TIK mygtuko indikatorius: trikampis rodo fizini mygtuka virs ekrano -->
  <polygon points="360,5 372,19 348,19" fill="#1c1c1a"/>
  <text x="384" y="18" font-size="14" font-weight="500" fill="#1c1c1a">spausk viršutinį mygtuką — PILNA PROGNOZĖ</text>

  <!-- Didele oru piktograma (debesis su lietumi) -->
  <path d="M62 118 a32 32 0 0 1 32 -27 a40 40 0 0 1 76 9 a27 27 0 0 1 -6 53 l-96 0 a30 30 0 0 1 -6 -35" fill="#ffffff" stroke="#1c1c1a" stroke-width="5"/>
  <g stroke="#1c1c1a" stroke-width="4" stroke-linecap="round">
    <line x1="88" y1="166" x2="80" y2="184"/><line x1="120" y1="166" x2="112" y2="184"/><line x1="152" y1="166" x2="144" y2="184"/>
  </g>

  <!-- Temperatura: didelis = jutimine, mazas ir ne centre = termometras -->
  <text x="415" y="72" font-size="22" fill="#5f5e5a" text-anchor="middle">jaučiasi kaip</text>
  <text x="415" y="150" font-size="92" font-weight="bold" fill="#1c1c1a" text-anchor="middle">14°</text>
  <text x="272" y="180" font-size="17" fill="#5f5e5a">termometras rodo 16°</text>

  <!-- Desinys stulpelis: maks/min/vejas/lietus dideli su rodyklemis -->
  <g fill="#1c1c1a">
    <polygon points="628,78 640,78 634,64"/>
    <text x="650" y="86" font-size="30" font-weight="500">18°</text>
    <polygon points="748,70 760,70 754,84"/>
    <text x="770" y="86" font-size="30" font-weight="500">12°</text>
  </g>
  <path d="M628 122 h30 M652 116 a6 6 0 1 1 6 6" stroke="#1c1c1a" stroke-width="2.5" fill="none"/>
  <text x="672" y="132" font-size="26" fill="#1c1c1a">5 m/s ŠV</text>
  <path d="M632 158 a10 10 0 0 1 20 0 c0 8 -10 18 -10 18 c0 0 -10 -10 -10 -18 z" fill="#1c1c1a"/>
  <text x="672" y="176" font-size="26" fill="#1c1c1a">lietus 70%</text>

  <!-- Aprangos patarimas: be remelio, tik linijos; simetriskos ikonos -->
  <line x1="20" y1="196" x2="940" y2="196" stroke="#1c1c1a" stroke-width="1.5"/>
  <g stroke="#1c1c1a" stroke-width="2.6" fill="none" stroke-linecap="round">
    <!-- Megztinis: drabuzio siluetas, tiesus krastai + svelniai suapvalinti kampai -->
    <g transform="translate(80,214)">
      <path d="M-8 4 L-28 4 Q-32 4 -32 8 L-32 20 Q-32 24 -28 24 L-24 24 Q-20 24 -19 20 L-18 16 L-18 54 Q-18 58 -14 58 L14 58 Q18 58 18 54 L18 16 L19 20 Q20 24 24 24 L28 24 Q32 24 32 20 L32 8 Q32 4 28 4 L8 4 Q0 10 -8 4 Z"/>
      <path d="M-16 32 q4 -5 8 0 t8 0 t8 0 t8 0"/>
      <path d="M-16 43 q4 -5 8 0 t8 0 t8 0 t8 0"/>
      <path d="M-12 50 v6 M-6 50 v6 M0 50 v6 M6 50 v6 M12 50 v6"/>
    </g>
    <!-- Striuke: tas pats siluetas + apykakle + uztrauktukas -->
    <g transform="translate(166,214)">
      <path d="M-8 4 L-28 4 Q-32 4 -32 8 L-32 20 Q-32 24 -28 24 L-24 24 Q-20 24 -19 20 L-18 16 L-18 54 Q-18 58 -14 58 L14 58 Q18 58 18 54 L18 16 L19 20 Q20 24 24 24 L28 24 Q32 24 32 20 L32 8 Q32 4 28 4 L8 4 Q0 10 -8 4 Z"/>
      <path d="M-8 4 Q-15 10 -11 20 L-4 13 Q-6 8 -8 4 Z" fill="#1c1c1a"/>
      <path d="M8 4 Q15 10 11 20 L4 13 Q6 8 8 4 Z" fill="#1c1c1a"/>
      <path d="M0 10 V58"/>
    </g>
    <!-- Sketis: apvalus kupolas, banguotas krastas -->
    <g transform="translate(250,222)">
      <path d="M-30 26 a30 30 0 0 1 60 0 q-15 -8 -30 0 q-15 -8 -30 0 z" fill="#ffffff"/>
      <path d="M0 26 v-7 M0 26 v34 a9 9 0 0 1 -15 -4"/>
    </g>
  </g>
  <text x="360" y="220" font-size="14" fill="#5f5e5a" letter-spacing="1">KAIP RENGTIS</text>
  <text x="360" y="250" font-size="23" font-weight="bold" fill="#1c1c1a">Dangus šiandien verkia — megztinis,</text>
  <text x="360" y="280" font-size="23" font-weight="bold" fill="#1c1c1a">ant viršaus striukė, o skėtis draugas</text>
  <line x1="20" y1="298" x2="940" y2="298" stroke="#1c1c1a" stroke-width="1.5"/>

  <!-- Adaptacijos info: koeficientas + paskutinis atsiliepimas + isvada -->
  <text x="30" y="324" font-size="16" fill="#5f5e5a">Korekcija −2,5°   ·   paskutinis atsiliepimas: 07-11</text>
  <text x="30" y="348" font-size="17" font-weight="500" fill="#1c1c1a">Dažniau jaučiate šaltį — renku šilčiau 🧣</text>

  <!-- Rytas / Diena / Vakaras: didesni; temperatura iki piktogramos vidurio, ikona salia -->
  <g font-weight="bold" fill="#1c1c1a" text-anchor="middle" font-size="20">
    <text x="160" y="388">Rytas</text>
    <text x="480" y="388">Diena</text>
    <text x="800" y="388">Vakaras</text>
  </g>
  <g stroke="#1c1c1a" stroke-width="2.5" fill="#ffffff">
    <path d="M112 448 a15 15 0 0 1 15 -13 a17 17 0 0 1 33 4 a13 13 0 0 1 -3 25 l-42 0 a14 14 0 0 1 -3 -16"/>
    <path d="M432 448 a15 15 0 0 1 15 -13 a17 17 0 0 1 33 4 a13 13 0 0 1 -3 25 l-42 0 a14 14 0 0 1 -3 -16"/>
    <path d="M752 448 a15 15 0 0 1 15 -13 a17 17 0 0 1 33 4 a13 13 0 0 1 -3 25 l-42 0 a14 14 0 0 1 -3 -16"/>
  </g>
  <g stroke="#1c1c1a" stroke-width="2" stroke-linecap="round">
    <line x1="444" y1="468" x2="440" y2="478"/><line x1="456" y1="468" x2="452" y2="478"/><line x1="468" y1="468" x2="464" y2="478"/>
  </g>
  <g font-size="30" font-weight="bold" fill="#1c1c1a">
    <text x="196" y="462">13°</text>
    <text x="516" y="462">16°</text>
    <text x="836" y="462">14°</text>
  </g>

  <!-- APACIA: visas baras (miestas + data + wifi + baterija), linija virsuje -->
  <line x1="5" y1="496" x2="955" y2="496" stroke="#888880" stroke-width="1.5"/>
  <text x="15" y="524" font-size="21" font-weight="bold" fill="#1c1c1a">Vilnius</text>
  <text x="150" y="524" font-size="18" fill="#1c1c1a">Penktadienis, 11-07-2026  @  07:30:12</text>
  <g fill="#1c1c1a">
    <rect x="690" y="510" width="40" height="16" rx="2" fill="none" stroke="#1c1c1a" stroke-width="2"/>
    <rect x="730" y="514" width="4" height="8"/>
    <rect x="692" y="512" width="30" height="12"/>
    <text x="742" y="524" font-size="16">78%  3.98v</text>
  </g>
  <g fill="#1c1c1a">
    <rect x="884" y="518" width="6" height="8"/><rect x="894" y="514" width="6" height="12"/>
    <rect x="904" y="510" width="6" height="16"/><rect x="914" y="506" width="6" height="20"/><rect x="924" y="502" width="6" height="24"/>
  </g>
</svg>
