<svg xmlns="http://www.w3.org/2000/svg" viewBox="0 0 960 540" font-family="Segoe UI, Arial, sans-serif">
  <rect x="0" y="0" width="960" height="540" fill="#ffffff" stroke="#888880" stroke-width="2"/>

  <!-- Virsuje TIK mygtuko indikatorius -->
  <polygon points="360,5 372,19 348,19" fill="#1c1c1a"/>
  <text x="384" y="18" font-size="14" font-weight="500" fill="#1c1c1a">spausk viršutinį mygtuką — PAPRASTAS VAIZDAS</text>

  <!-- Vejo roze -->
  <g stroke="#1c1c1a" fill="none" stroke-width="2">
    <circle cx="130" cy="135" r="92"/><circle cx="130" cy="135" r="64"/>
  </g>
  <text x="130" y="35" font-size="15" fill="#1c1c1a" text-anchor="middle">Š</text>
  <text x="130" y="250" font-size="15" fill="#1c1c1a" text-anchor="middle">P</text>
  <text x="24" y="140" font-size="15" fill="#1c1c1a" text-anchor="middle">V</text>
  <text x="238" y="140" font-size="15" fill="#1c1c1a" text-anchor="middle">R</text>
  <polygon points="130,52 121,72 139,72" fill="#1c1c1a" transform="rotate(225 130 135)"/>
  <text x="130" y="105" font-size="17" font-weight="bold" fill="#1c1c1a" text-anchor="middle">PV</text>
  <text x="130" y="140" font-size="28" font-weight="bold" fill="#1c1c1a" text-anchor="middle">5.2</text>
  <text x="130" y="166" font-size="15" fill="#1c1c1a" text-anchor="middle">m/s</text>
  <text x="132" y="192" font-size="14" fill="#1c1c1a" text-anchor="middle">225°</text>

  <!-- Astronomija -->
  <text x="15" y="278" font-size="16" fill="#1c1c1a">05:12 Saulėtekis</text>
  <text x="15" y="300" font-size="16" fill="#1c1c1a">21:48 Saulėlydis</text>
  <text x="15" y="328" font-size="16" fill="#1c1c1a">Priešpilnis</text>
  <circle cx="205" cy="298" r="26" fill="#d9d7cf" stroke="#1c1c1a" stroke-width="2"/>
  <path d="M205 272 a26 26 0 0 1 0 52 a14 26 0 0 0 0 -52" fill="#ffffff"/>

  <!-- Centras: temperatura -->
  <text x="300" y="80" font-size="38" font-weight="bold" fill="#1c1c1a">16.4°    68%</text>
  <text x="330" y="115" font-size="22" fill="#1c1c1a">18° | 12°</text>
  <text x="295" y="150" font-size="22" fill="#1c1c1a">Debesuota su pragiedruliais</text>
  <text x="295" y="205" font-size="20" fill="#1c1c1a">752mmHg</text>
  <path d="M405 198 l12 -10 l0 6 l14 0 l0 8 l-14 0 l0 6 z" fill="#1c1c1a" transform="rotate(-35 415 198)"/>
  <text x="470" y="205" font-size="18" fill="#1c1c1a">10km</text>
  <text x="560" y="205" font-size="18" fill="#1c1c1a">65%</text>

  <!-- Oru piktograma desineje -->
  <g stroke="#1c1c1a" stroke-width="4" fill="none">
    <circle cx="790" cy="95" r="26"/>
    <line x1="790" y1="53" x2="790" y2="64"/><line x1="790" y1="126" x2="790" y2="137"/>
    <line x1="747" y1="95" x2="758" y2="95"/><line x1="822" y1="95" x2="833" y2="95"/>
    <line x1="760" y1="65" x2="768" y2="73"/><line x1="812" y1="117" x2="820" y2="125"/>
    <line x1="760" y1="125" x2="768" y2="117"/><line x1="812" y1="73" x2="820" y2="65"/>
  </g>
  <path d="M800 148 a21 21 0 0 1 21 -17 a25 25 0 0 1 48 6 a17 17 0 0 1 -4 34 l-61 0 a19 19 0 0 1 -4 -23" fill="#ffffff" stroke="#1c1c1a" stroke-width="4"/>

  <!-- 3h prognozes juosta -->
  <g font-size="15" fill="#1c1c1a" text-anchor="middle">
    <text x="365" y="238">10:00</text><text x="455" y="238">13:00</text><text x="545" y="238">16:00</text>
    <text x="635" y="238">19:00</text><text x="725" y="238">22:00</text><text x="815" y="238">01:00</text><text x="905" y="238">04:00</text>
    <text x="365" y="330">17°/14°</text><text x="455" y="330">18°/15°</text><text x="545" y="330">18°/15°</text>
    <text x="635" y="330">16°/13°</text><text x="725" y="330">14°/12°</text><text x="815" y="330">13°/11°</text><text x="905" y="330">12°/11°</text>
  </g>
  <g stroke="#1c1c1a" stroke-width="2.5" fill="#ffffff">
    <path d="M345 288 a12 12 0 0 1 12 -10 a14 14 0 0 1 27 3 a10 10 0 0 1 -2 20 l-35 0 a11 11 0 0 1 -2 -13"/>
    <path d="M435 288 a12 12 0 0 1 12 -10 a14 14 0 0 1 27 3 a10 10 0 0 1 -2 20 l-35 0 a11 11 0 0 1 -2 -13"/>
    <circle cx="545" cy="288" r="14"/>
    <path d="M615 288 a12 12 0 0 1 12 -10 a14 14 0 0 1 27 3 a10 10 0 0 1 -2 20 l-35 0 a11 11 0 0 1 -2 -13"/>
    <path d="M705 288 a12 12 0 0 1 12 -10 a14 14 0 0 1 27 3 a10 10 0 0 1 -2 20 l-35 0 a11 11 0 0 1 -2 -13"/>
    <path d="M795 288 a12 12 0 0 1 12 -10 a14 14 0 0 1 27 3 a10 10 0 0 1 -2 20 l-35 0 a11 11 0 0 1 -2 -13"/>
    <path d="M885 288 a12 12 0 0 1 12 -10 a14 14 0 0 1 27 3 a10 10 0 0 1 -2 20 l-35 0 a11 11 0 0 1 -2 -13"/>
  </g>

  <!-- Grafikai (sumazinti, kad tilptu status baras apacioje) -->
  <g font-size="16" font-weight="bold" fill="#1c1c1a" text-anchor="middle">
    <text x="135" y="364">Slėgis (mmHg)</text>
    <text x="365" y="364">Temperatūra (°C)</text>
    <text x="595" y="364">Lietus (mm)</text>
    <text x="828" y="364">Drėgnumas (%)</text>
  </g>
  <g stroke="#b4b2a9" fill="none" stroke-width="1.5">
    <rect x="48" y="374" width="178" height="82"/>
    <rect x="278" y="374" width="178" height="82"/>
    <rect x="508" y="374" width="178" height="82"/>
    <rect x="740" y="374" width="178" height="82"/>
  </g>
  <polyline points="50,420 85,416 120,412 155,416 190,424 224,430" stroke="#1c1c1a" stroke-width="2.5" fill="none"/>
  <polyline points="280,436 315,410 350,402 385,424 420,440 454,444" stroke="#1c1c1a" stroke-width="2.5" fill="none"/>
  <g fill="#1c1c1a">
    <rect x="565" y="430" width="14" height="26"/><rect x="585" y="410" width="14" height="46"/><rect x="605" y="438" width="14" height="18"/>
  </g>
  <polyline points="742,418 780,410 820,402 860,394 916,390" stroke="#1c1c1a" stroke-width="2.5" fill="none"/>
  <g font-size="12" fill="#5f5e5a">
    <text x="70" y="470">0d</text><text x="130" y="470">1d</text><text x="190" y="470">2d</text>
    <text x="300" y="470">0d</text><text x="360" y="470">1d</text><text x="420" y="470">2d</text>
    <text x="530" y="470">0d</text><text x="590" y="470">1d</text><text x="650" y="470">2d</text>
    <text x="762" y="470">0d</text><text x="822" y="470">1d</text><text x="882" y="470">2d</text>
  </g>

  <!-- APACIA: visas baras (miestas + data + wifi + baterija) -->
  <line x1="5" y1="486" x2="955" y2="486" stroke="#888880" stroke-width="1.5"/>
  <text x="15" y="516" font-size="21" font-weight="bold" fill="#1c1c1a">Vilnius</text>
  <text x="150" y="516" font-size="18" fill="#1c1c1a">Penktadienis, 11-07-2026  @  07:30:12</text>
  <g fill="#1c1c1a">
    <rect x="690" y="502" width="40" height="16" rx="2" fill="none" stroke="#1c1c1a" stroke-width="2"/>
    <rect x="730" y="506" width="4" height="8"/>
    <rect x="692" y="504" width="30" height="12"/>
    <text x="742" y="516" font-size="16">78%  3.98v</text>
  </g>
  <g fill="#1c1c1a">
    <rect x="884" y="510" width="6" height="8"/><rect x="894" y="506" width="6" height="12"/>
    <rect x="904" y="502" width="6" height="16"/><rect x="914" y="498" width="6" height="20"/><rect x="924" y="494" width="6" height="24"/>
  </g>
</svg>
